<svg width="100" height="100" viewBox="0 0 100 100" fill="none" xmlns="http://www.w3.org/2000/svg">
<path d="M50.6156 19.7236C50.9031 20.4089 51.7318 22.3903 52.4574 24.126C53.5104 26.6458 56.7684 34.0774 58.5004 37.9111C58.6655 38.2765 62.191 46.1249 66.3343 55.3516C77.3102 79.7928 76.7283 78.6399 78.5746 79.6152C81.1766 80.9895 80.5733 81.2994 75.0384 81.4316C69.7527 81.5578 68.5554 81.0808 71.2162 79.9102C73.35 78.9717 73.0722 77.7908 68.1107 66.7295C67.7624 65.9532 67.1931 64.6819 66.8461 63.9053C66.4986 63.1282 65.2428 60.4004 64.055 57.8428C62.8674 55.2848 60.3695 49.8285 58.5043 45.7178C56.6387 41.6071 54.3351 36.5997 53.3851 34.5898C52.4352 32.5801 51.3194 30.1879 50.9056 29.2744C50.4919 28.3609 49.7406 26.7202 49.2367 25.6279L48.3197 23.6416L47.4691 25.4619C41.6407 37.92 42.8286 46.8482 51.9603 59.2119C54.1658 62.1978 56.0029 64.6526 56.9681 65.9033C64.5075 75.672 64.578 81.9266 57.1488 81.9268C52.4305 81.9268 50.3317 79.2721 48.8783 71.4629C46.2526 57.3547 40.4126 55.1472 33.5013 65.6494C28.2882 73.5718 26.821 80.2656 30.2972 80.2656C30.6378 80.2657 30.9164 80.4906 30.9164 80.7646C30.9162 81.2566 30.4325 81.3032 24.1908 81.4102C22.5186 81.4391 22.5961 80.4922 24.3353 79.6465C25.8721 78.8994 27.1963 77.112 27.9369 74.7852C28.8795 71.8233 34.0329 63.0089 36.056 60.8984C39.4724 57.3347 43.5694 56.9707 46.4896 59.9707C48.304 61.8349 48.9556 63.0596 52.1703 70.6328C55.0329 77.3755 55.6982 78.7029 56.597 79.459C59.1902 81.6398 62.2839 78.8707 61.1459 75.3877C60.7663 74.2262 57.6436 68.3619 57.1986 67.9746C57.0928 67.882 56.4088 66.9108 55.6781 65.8154C54.9468 64.7191 53.376 62.5808 52.1879 61.0635C41.8577 47.8723 40.1903 36.559 46.7396 24.1025C48.156 21.408 47.9275 20.556 45.5287 19.5967C43.498 18.7845 43.9428 18.4785 47.1517 18.4785H50.0931L50.6156 19.7236ZM49.2601 31.5654C50.2602 28.7783 50.3032 29.0224 49.5228 33.0449C48.0125 40.8328 49.2188 46.3806 53.975 53.5244C54.4615 54.2551 55.0035 55.0774 55.18 55.3516C55.3569 55.6256 57.0369 58.0184 58.9134 60.6689C60.7899 63.3193 62.7601 66.1594 63.2914 66.9805C63.8227 67.8011 64.5121 68.8493 64.8236 69.3096C65.1346 69.7699 65.5039 70.5176 65.6439 70.9707C65.7862 71.4318 65.3417 70.9896 64.6361 69.9678C63.6552 68.5482 58.9385 62.2822 57.2592 60.168C54.2689 56.4032 50.4251 50.1612 49.2269 47.123C47.623 43.0557 47.6379 36.0855 49.2601 31.5654Z" fill="white"/>
</svg>
