<svg width="100" height="100" viewBox="0 0 100 100" fill="none" xmlns="http://www.w3.org/2000/svg">
<path d="M49.3541 18.2842C49.6491 18.9907 50.4993 21.0329 51.2437 22.8223C52.3243 25.4202 55.6669 33.0819 57.4439 37.0342C57.6134 37.4109 61.2306 45.5017 65.482 55.0137C76.7434 80.209 76.1476 79.0223 78.0416 80.0273C80.7116 81.4441 80.093 81.7641 74.4137 81.9004C68.9901 82.0305 67.7617 81.5388 70.4918 80.332C72.6813 79.3646 72.3962 78.1468 67.3053 66.7432C66.9479 65.9428 66.3635 64.6327 66.0074 63.832C65.6509 63.0311 64.3629 60.2188 63.1441 57.582C61.9256 54.945 59.3618 49.32 57.4478 45.082C55.5336 40.8441 53.1706 35.6813 52.1959 33.6094C51.2212 31.5375 50.0756 29.0717 49.651 28.1299C49.2264 27.1881 48.456 25.4961 47.9391 24.3701L46.9977 22.3232L46.1246 24.1992C40.1441 37.0427 41.3639 46.2479 50.734 58.9941C52.9967 62.072 54.8813 64.6022 55.8717 65.8916C63.6078 75.9625 63.6804 82.4111 56.0572 82.4111C51.2158 82.4111 49.0623 79.6737 47.5709 71.623C44.8767 57.0788 38.8851 54.8031 31.7935 65.6299C26.4443 73.7973 24.9385 80.6982 28.5055 80.6982C28.8547 80.6984 29.141 80.9296 29.1412 81.2119C29.1412 81.7194 28.6457 81.7677 22.2398 81.8779C20.5241 81.9077 20.6036 80.9315 22.3883 80.0596C23.9651 79.2892 25.3238 77.4466 26.0836 75.0479C27.0508 71.9944 32.3387 62.9081 34.4146 60.7324C37.9202 57.0584 42.1233 56.6836 45.1197 59.7764C46.9812 61.6981 47.6506 62.9598 50.9488 70.7666C53.8865 77.719 54.5693 79.0877 55.4918 79.8672C58.1525 82.115 61.3262 79.2604 60.1588 75.6699C59.7697 74.4732 56.5664 68.4282 56.109 68.0273C56.0012 67.9332 55.2986 66.9318 54.5484 65.8018C53.7981 64.6716 52.1866 62.4667 50.9674 60.9023C40.3675 47.303 38.6564 35.6396 45.3766 22.7979C46.8299 20.02 46.5949 19.1423 44.1334 18.1533C42.0499 17.3161 42.5074 17 45.8004 17H48.818L49.3541 18.2842ZM47.9625 30.4912C48.9886 27.6182 49.0337 27.8702 48.233 32.0166C46.6833 40.0453 47.9202 45.7653 52.8004 53.1299C53.2997 53.8833 53.8566 54.7311 54.0377 55.0137C54.2195 55.2967 55.9426 57.7631 57.8678 60.4951C59.793 63.2272 61.8146 66.1552 62.36 67.002C62.9051 67.848 63.6125 68.9288 63.9322 69.4033C64.2514 69.878 64.6304 70.6491 64.774 71.1162C64.9199 71.5913 64.4638 71.1354 63.7398 70.082C62.7335 68.6187 57.8937 62.1592 56.1705 59.9795C53.1022 56.0983 49.1587 49.6625 47.9293 46.5303C46.2836 42.3371 46.2979 35.151 47.9625 30.4912Z" fill="#7F7E60"/>
</svg>
